<svg xmlns="http://www.w3.org/2000/svg" xmlns:xlink="http://www.w3.org/1999/xlink" viewBox="0 0 401.84 199.08"><defs><style>.cls-1{isolation:isolate;}.cls-2{fill:url(#未命名漸層_70);}.cls-3{fill:url(#未命名漸層_69);}.cls-4{fill:#221714;opacity:0.22;mix-blend-mode:darken;}.cls-5{fill:url(#未命名漸層_46);}.cls-6{fill:url(#未命名漸層_35);}.cls-7{fill:url(#未命名漸層_46-2);}.cls-8{fill:url(#未命名漸層_35-2);}.cls-9{fill:url(#未命名漸層_46-3);}.cls-10{fill:url(#未命名漸層_35-3);}.cls-11{fill:url(#未命名漸層_46-4);}.cls-12{fill:url(#未命名漸層_35-4);}</style><linearGradient id="未命名漸層_70" x1="52.13" y1="156.84" x2="111.34" y2="54.28" gradientUnits="userSpaceOnUse"><stop offset="0" stop-color="#f3e727"/><stop offset="0.01" stop-color="#f2e328"/><stop offset="0.18" stop-color="#ebb633"/><stop offset="0.35" stop-color="#e5903b"/><stop offset="0.52" stop-color="#e17342"/><stop offset="0.68" stop-color="#de5f47"/><stop offset="0.84" stop-color="#dc524a"/><stop offset="1" stop-color="#db4e4b"/></linearGradient><linearGradient id="未命名漸層_69" x1="279.77" y1="163.38" x2="338.99" y2="60.81" xlink:href="#未命名漸層_70"/><linearGradient id="未命名漸層_46" x1="74.36" y1="57.63" x2="201.8" y2="57.63" gradientUnits="userSpaceOnUse"><stop offset="0" stop-color="#f3e727"/><stop offset="0.13" stop-color="#ecb932"/><stop offset="0.28" stop-color="#e58b3d"/><stop offset="0.41" stop-color="#df6a44"/><stop offset="0.52" stop-color="#dc5549"/><stop offset="0.59" stop-color="#db4e4b"/><stop offset="0.62" stop-color="#c95153"/><stop offset="0.71" stop-color="#9a5a68"/><stop offset="0.8" stop-color="#756078"/><stop offset="0.88" stop-color="#5b6583"/><stop offset="0.95" stop-color="#4b688b"/><stop offset="1" stop-color="#45698d"/></linearGradient><linearGradient id="未命名漸層_35" x1="74.48" y1="58.42" x2="201.92" y2="58.42" gradientUnits="userSpaceOnUse"><stop offset="0" stop-color="#f3e727"/><stop offset="0.02" stop-color="#f2df29"/><stop offset="0.26" stop-color="#e17741"/><stop offset="0.36" stop-color="#db4e4b"/><stop offset="0.51" stop-color="#ac5660"/><stop offset="0.66" stop-color="#805e73"/><stop offset="0.8" stop-color="#606481"/><stop offset="0.92" stop-color="#4c688a"/><stop offset="1" stop-color="#45698d"/></linearGradient><linearGradient id="未命名漸層_46-2" x1="74.36" y1="-2496.82" x2="201.8" y2="-2496.82" gradientTransform="matrix(1, 0, 0, -1, 0, -2355.37)" xlink:href="#未命名漸層_46"/><linearGradient id="未命名漸層_35-2" x1="74.48" y1="-2496.02" x2="201.92" y2="-2496.02" gradientTransform="matrix(1, 0, 0, -1, 0, -2355.37)" xlink:href="#未命名漸層_35"/><linearGradient id="未命名漸層_46-3" x1="1062.2" y1="57.63" x2="1189.64" y2="57.63" gradientTransform="matrix(-1, 0, 0, 1, 1389.69, 0)" xlink:href="#未命名漸層_46"/><linearGradient id="未命名漸層_35-3" x1="1062.32" y1="58.42" x2="1189.77" y2="58.42" gradientTransform="matrix(-1, 0, 0, 1, 1389.69, 0)" xlink:href="#未命名漸層_35"/><linearGradient id="未命名漸層_46-4" x1="1062.2" y1="-2496.82" x2="1189.64" y2="-2496.82" gradientTransform="translate(1389.69 -2355.37) rotate(180)" xlink:href="#未命名漸層_46"/><linearGradient id="未命名漸層_35-4" x1="1062.32" y1="-2496.02" x2="1189.77" y2="-2496.02" gradientTransform="translate(1389.69 -2355.37) rotate(180)" xlink:href="#未命名漸層_35"/></defs><title>logo_momegaWT</title><g class="cls-1"><g id="圖層_2" data-name="圖層 2"><path class="cls-2" d="M109.68,148.6l1.85,4.23-9.16,7.63-.38.32a20.07,20.07,0,0,1-12.05,4A21.22,21.22,0,0,1,75,158.37l0,0-1.52-1.81L37,113h0l-3.25-3.86a0,0,0,0,0,0,0,18.22,18.22,0,0,1,0-19.25h0L37,86h0l36.49-43.5L75,40.73s0,0,0,0a21.16,21.16,0,0,1,14.95-6.4,20,20,0,0,1,12.05,4c.13.09.25.21.38.31l9.16,7.63-1.85,4.23s0,0,0,0h0c-.1.21-.21.41-.3.62l-.16.36v0c-4,8.35-16,23.27-16,23.27L72.46,99.54l20.8,24.78s12,14.92,16,23.27v0l.16.36c.09.21.2.41.3.62h0S109.68,148.59,109.68,148.6Z"/><path class="cls-3" d="M370.9,99.54a18.1,18.1,0,0,1-2.75,9.62,0,0,0,0,0,0,0L364.89,113h0l-36.49,43.5-1.52,1.81,0,0a21.22,21.22,0,0,1-14.95,6.41,20.07,20.07,0,0,1-12.05-4l-.38-.32-9.16-7.63,1.85-4.23s0,0,0,0h0c.1-.21.21-.41.3-.62l.16-.36v0c4-8.35,16-23.27,16-23.27l20.8-24.78-20.8-24.79s-12-14.92-16-23.27v0l-.16-.36c-.09-.21-.2-.41-.3-.62h0s0,0,0,0l-1.85-4.23,9.16-7.63c.13-.1.25-.22.38-.31a20,20,0,0,1,12.05-4,21.16,21.16,0,0,1,14.95,6.4s0,0,0,0l1.52,1.8L364.88,86h0l3.25,3.87h0A18.14,18.14,0,0,1,370.9,99.54Z"/><path class="cls-4" d="M104.05,40.22h0A19.91,19.91,0,0,0,101.39,38l0,0a20.06,20.06,0,0,0-11.43-3.56,20.82,20.82,0,0,0-11,3.22l-4.18,3.42s-2.95,3.6-4.06,4.93c0,0,10.44-8.24,20.4-7.34,2.13.19,4.38.5,5.91,1.54a123.84,123.84,0,0,1,12.66,10.27l1.63-3.72.2-.37Z"/><path class="cls-5" d="M131.76,22.88l0,0,0,0h0q-.64-.54-1.31-1l1.31,1.1h0l-1.31-1.1-.13-.11A32.24,32.24,0,0,0,111,15.33a32.12,32.12,0,0,0-23.09,9.75l-3.06,3.65L74.36,41.27a20.38,20.38,0,0,1,6.36-4.63,20.63,20.63,0,0,1,8.79-2,20.06,20.06,0,0,1,11.43,3.56l0,0a19.91,19.91,0,0,1,2.66,2.18h0l7.46,6.16,3.33,2.8,20,16.82,40.21,33.74,27.11,0V81.72Z"/><path class="cls-6" d="M131.89,22.93l0,0,0,0h0q-.64-.54-1.31-1l1.31,1.1h0l-1.31-1.1-.13-.11a32.24,32.24,0,0,0-19.25-6.37,32.12,32.12,0,0,0-23.09,9.75L85,28.78,74.48,41.32a20.38,20.38,0,0,1,6.36-4.63c1.59-.75,5.61-3.42,9.39-5.32a30.41,30.41,0,0,1,6.39-2.29,32.39,32.39,0,0,1,14.62.32c6.9,2.06,13.62,7.74,16.75,10.24,19.54,15.6,73.92,60.3,73.92,60.3,0,8,0-18.18,0-18.18Z"/><path class="cls-4" d="M104.05,158.86h0a19.91,19.91,0,0,1-2.66,2.18l0,0a20.06,20.06,0,0,1-11.43,3.56,20.82,20.82,0,0,1-11-3.22L74.77,158s-2.95-3.6-4.06-4.93c0,0,10.44,8.24,20.4,7.34,2.13-.19,4.38-.5,5.91-1.54a123.84,123.84,0,0,0,12.66-10.27l1.63,3.72.2.37Z"/><path class="cls-7" d="M131.76,176.19l0,0,0,0h0q-.64.54-1.31,1l1.31-1.1h0l-1.31,1.1-.13.11A32.24,32.24,0,0,1,111,183.75,32.12,32.12,0,0,1,87.94,174l-3.06-3.65L74.36,157.81a20.38,20.38,0,0,0,6.36,4.63,20.63,20.63,0,0,0,8.79,2,20.06,20.06,0,0,0,11.43-3.56l0,0a19.91,19.91,0,0,0,2.66-2.18h0l7.46-6.16,3.33-2.8,20-16.82,40.21-33.74,27.11,0v18.18Z"/><path class="cls-8" d="M131.89,176.15l0,0,0,0h0q-.64.54-1.31,1l1.31-1.1h0l-1.31,1.1-.13.11a32.24,32.24,0,0,1-19.25,6.37,32.12,32.12,0,0,1-23.09-9.75L85,170.3,74.48,157.76a20.38,20.38,0,0,0,6.36,4.63c1.59.75,5.61,3.42,9.39,5.32A30.41,30.41,0,0,0,96.62,170a32.39,32.39,0,0,0,14.62-.32c6.9-2.06,13.62-7.74,16.75-10.24,19.54-15.6,73.92-60.3,73.92-60.3,0-8,0,18.18,0,18.18Z"/><path class="cls-4" d="M297.79,40.22h0A19.91,19.91,0,0,1,300.46,38l0,0a20.06,20.06,0,0,1,11.43-3.56,20.82,20.82,0,0,1,11,3.22l4.18,3.42s2.95,3.6,4.06,4.93c0,0-10.44-8.24-20.4-7.34-2.13.19-4.38.5-5.91,1.54a123.84,123.84,0,0,0-12.66,10.27l-1.63-3.72-.2-.37Z"/><path class="cls-9" d="M270.08,22.88l0,0,0,0h0q.64-.54,1.31-1l-1.31,1.1h0l1.31-1.1.13-.11a32.24,32.24,0,0,1,19.25-6.37,32.12,32.12,0,0,1,23.09,9.75L317,28.73l10.52,12.54a20.38,20.38,0,0,0-6.36-4.63,20.63,20.63,0,0,0-8.79-2,20.06,20.06,0,0,0-11.43,3.56l0,0a19.91,19.91,0,0,0-2.66,2.18h0l-7.46,6.16-3.33,2.8-20,16.82L227.15,99.93l-27.11,0V81.72Z"/><path class="cls-10" d="M270,22.93l0,0,0,0h0q.64-.54,1.31-1L270,23h0l1.31-1.1.13-.11a32.24,32.24,0,0,1,19.25-6.37,32.12,32.12,0,0,1,23.09,9.75l3.06,3.65,10.52,12.54A20.38,20.38,0,0,0,321,36.69c-1.59-.75-5.61-3.42-9.39-5.32a30.41,30.41,0,0,0-6.39-2.29,32.39,32.39,0,0,0-14.62.32c-6.9,2.06-13.62,7.74-16.75,10.24-19.54,15.6-73.92,60.3-73.92,60.3,0,8,0-18.18,0-18.18Z"/><path class="cls-4" d="M297.79,158.86h0a19.91,19.91,0,0,0,2.66,2.18l0,0a20.06,20.06,0,0,0,11.43,3.56,20.82,20.82,0,0,0,11-3.22l4.18-3.42s2.95-3.6,4.06-4.93c0,0-10.44,8.24-20.4,7.34-2.13-.19-4.38-.5-5.91-1.54a123.84,123.84,0,0,1-12.66-10.27l-1.63,3.72-.2.37Z"/><path class="cls-11" d="M270.08,176.19l0,0,0,0h0q.64.54,1.31,1l-1.31-1.1h0l1.31,1.1.13.11a32.24,32.24,0,0,0,19.25,6.37A32.12,32.12,0,0,0,313.91,174l3.06-3.65,10.52-12.54a20.38,20.38,0,0,1-6.36,4.63,20.63,20.63,0,0,1-8.79,2,20.06,20.06,0,0,1-11.43-3.56l0,0a19.91,19.91,0,0,1-2.66-2.18h0l-7.46-6.16-3.33-2.8-20-16.82L227.15,99.15l-27.11,0v18.18Z"/><path class="cls-12" d="M270,176.15l0,0,0,0h0q.64.54,1.31,1l-1.31-1.1h0l1.31,1.1.13.11a32.24,32.24,0,0,0,19.25,6.37,32.12,32.12,0,0,0,23.09-9.75l3.06-3.65,10.52-12.54a20.38,20.38,0,0,1-6.36,4.63c-1.59.75-5.61,3.42-9.39,5.32a30.41,30.41,0,0,1-6.39,2.29,32.39,32.39,0,0,1-14.62-.32c-6.9-2.06-13.62-7.74-16.75-10.24-19.54-15.6-73.92-60.3-73.92-60.3,0-8,0,18.18,0,18.18Z"/></g></g></svg>