<svg xmlns="http://www.w3.org/2000/svg" xmlns:xlink="http://www.w3.org/1999/xlink" viewBox="0 0 404.85 314.98"><defs><style>.cls-1{isolation:isolate;}.cls-2{fill:#656666;}.cls-3{fill:url(#未命名漸層_70);}.cls-4{fill:url(#未命名漸層_69);}.cls-5{fill:#221714;opacity:0.22;mix-blend-mode:darken;}.cls-6{fill:url(#未命名漸層_46);}.cls-7{fill:url(#未命名漸層_35);}.cls-8{fill:url(#未命名漸層_46-2);}.cls-9{fill:url(#未命名漸層_35-2);}.cls-10{fill:url(#未命名漸層_46-3);}.cls-11{fill:url(#未命名漸層_35-3);}.cls-12{fill:url(#未命名漸層_46-4);}.cls-13{fill:url(#未命名漸層_35-4);}</style><linearGradient id="未命名漸層_70" x1="53.85" y1="164.07" x2="113.07" y2="61.51" gradientUnits="userSpaceOnUse"><stop offset="0" stop-color="#f3e727"/><stop offset="0.01" stop-color="#f2e328"/><stop offset="0.18" stop-color="#ebb633"/><stop offset="0.35" stop-color="#e5903b"/><stop offset="0.52" stop-color="#e17342"/><stop offset="0.68" stop-color="#de5f47"/><stop offset="0.84" stop-color="#dc524a"/><stop offset="1" stop-color="#db4e4b"/></linearGradient><linearGradient id="未命名漸層_69" x1="281.5" y1="170.61" x2="340.72" y2="68.04" xlink:href="#未命名漸層_70"/><linearGradient id="未命名漸層_46" x1="76.08" y1="64.86" x2="203.53" y2="64.86" gradientUnits="userSpaceOnUse"><stop offset="0" stop-color="#f3e727"/><stop offset="0.13" stop-color="#ecb932"/><stop offset="0.28" stop-color="#e58b3d"/><stop offset="0.41" stop-color="#df6a44"/><stop offset="0.52" stop-color="#dc5549"/><stop offset="0.59" stop-color="#db4e4b"/><stop offset="0.62" stop-color="#c95153"/><stop offset="0.71" stop-color="#9a5a68"/><stop offset="0.8" stop-color="#756078"/><stop offset="0.88" stop-color="#5b6583"/><stop offset="0.95" stop-color="#4b688b"/><stop offset="1" stop-color="#45698d"/></linearGradient><linearGradient id="未命名漸層_35" x1="76.2" y1="65.65" x2="203.65" y2="65.65" gradientUnits="userSpaceOnUse"><stop offset="0" stop-color="#f3e727"/><stop offset="0.02" stop-color="#f2df29"/><stop offset="0.26" stop-color="#e17741"/><stop offset="0.36" stop-color="#db4e4b"/><stop offset="0.51" stop-color="#ac5660"/><stop offset="0.66" stop-color="#805e73"/><stop offset="0.8" stop-color="#606481"/><stop offset="0.92" stop-color="#4c688a"/><stop offset="1" stop-color="#45698d"/></linearGradient><linearGradient id="未命名漸層_46-2" x1="76.08" y1="-1240.32" x2="203.53" y2="-1240.32" gradientTransform="matrix(1, 0, 0, -1, 0, -1091.64)" xlink:href="#未命名漸層_46"/><linearGradient id="未命名漸層_35-2" x1="76.2" y1="-1239.52" x2="203.65" y2="-1239.52" gradientTransform="matrix(1, 0, 0, -1, 0, -1091.64)" xlink:href="#未命名漸層_35"/><linearGradient id="未命名漸層_46-3" x1="1063.93" y1="64.86" x2="1191.37" y2="64.86" gradientTransform="matrix(-1, 0, 0, 1, 1393.14, 0)" xlink:href="#未命名漸層_46"/><linearGradient id="未命名漸層_35-3" x1="1064.05" y1="65.65" x2="1191.49" y2="65.65" gradientTransform="matrix(-1, 0, 0, 1, 1393.14, 0)" xlink:href="#未命名漸層_35"/><linearGradient id="未命名漸層_46-4" x1="1063.93" y1="-1240.32" x2="1191.37" y2="-1240.32" gradientTransform="translate(1393.14 -1091.64) rotate(180)" xlink:href="#未命名漸層_46"/><linearGradient id="未命名漸層_35-4" x1="1064.05" y1="-1239.52" x2="1191.49" y2="-1239.52" gradientTransform="translate(1393.14 -1091.64) rotate(180)" xlink:href="#未命名漸層_35"/></defs><title>logo_Momega</title><g class="cls-1"><g id="圖層_2" data-name="圖層 2"><path class="cls-2" d="M44,274.49V212.22H56.57l17.62,52.65,17.67-52.65h12.48v62.27h-6.9V219.6H96.16L78.06,272.25H70.32L52.22,219.6H51v54.89Z"/><path class="cls-2" d="M116.47,251.46q0-11.87,4.42-17.36t14.88-5.49q10.5,0,14.88,5.47T155,251.46a54.52,54.52,0,0,1-.88,10.7,19.32,19.32,0,0,1-3.05,7.36,12.25,12.25,0,0,1-5.91,4.46,27.33,27.33,0,0,1-9.4,1.38,27.36,27.36,0,0,1-9.38-1.38,12.24,12.24,0,0,1-5.93-4.46,19.56,19.56,0,0,1-3.08-7.38A53.28,53.28,0,0,1,116.47,251.46Zm6.94,0q0,4.13.26,6.83a23.67,23.67,0,0,0,1,5,8.18,8.18,0,0,0,2.13,3.58,9.25,9.25,0,0,0,3.56,2,18.25,18.25,0,0,0,5.38.68,22.48,22.48,0,0,0,4.64-.42,8.45,8.45,0,0,0,3.32-1.43,8.89,8.89,0,0,0,2.22-2.35,10.64,10.64,0,0,0,1.32-3.52,34,34,0,0,0,.64-4.55q.17-2.37.18-5.8,0-9.54-2.59-13.27t-9.71-3.74q-7.08,0-9.71,3.74T123.41,251.46Z"/><path class="cls-2" d="M167.14,274.49V212.22h12.52l17.62,52.65,17.67-52.65h12.48v62.27h-6.9V219.6h-1.27l-18.11,52.65h-7.73L175.31,219.6h-1.23v54.89Z"/><path class="cls-2" d="M239.56,252.25q0-23.64,18.81-23.64,9.1,0,13.6,5.08t4.5,16l-.35,5.1H246.41q0,7.56,2.68,11.16t9.1,3.6q3,0,7.14-.2t6.79-.37l2.64-.22.18,5.32a140.44,140.44,0,0,1-17.53,1.32q-9.76,0-13.8-5.62T239.56,252.25Zm6.77-2.86H269.7q0-8.26-2.66-11.69t-8.68-3.43q-5.93,0-9,3.58T246.33,249.4Z"/><path class="cls-2" d="M285,282a10.48,10.48,0,0,1,1.6-6.06,25.91,25.91,0,0,1,5.52-5.34q-2.5-1.72-2.5-6.23a7.26,7.26,0,0,1,.75-2.43q.75-1.71,1.49-3.06l.79-1.35q-7.08-3.22-7.08-13.62,0-7.94,4.46-11.65t12.37-3.71a36.28,36.28,0,0,1,4.33.29,36.64,36.64,0,0,1,3.67.59l1.36.26,13.32-.35v5.67l-8.57-.18q3,3,3,9.07,0,8.5-4.17,11.86t-13.18,3.37a26.18,26.18,0,0,1-4.44-.35,16.87,16.87,0,0,0-1.63,4.86,3.94,3.94,0,0,0,.66,2.61,4.84,4.84,0,0,0,2.81,1,59.46,59.46,0,0,0,7.43.31,47.51,47.51,0,0,1,8.15.57,12.9,12.9,0,0,1,5.3,2.11,8.19,8.19,0,0,1,3,4.18,22,22,0,0,1,.88,6.81q0,7.43-5.08,10.85t-14.87,3.43q-10.81,0-15.1-2.92T285,282Zm6.68-.53q0,4.75,2.66,6.59T304.47,290q6.81,0,9.93-2t3.12-6.39a12.52,12.52,0,0,0-.4-3.43A5.75,5.75,0,0,0,316,276a4.41,4.41,0,0,0-2.17-1.25,15.65,15.65,0,0,0-3.05-.55q-1.6-.13-4.33-.13l-9.71-.47a16.54,16.54,0,0,0-4,3.77A7.48,7.48,0,0,0,291.68,281.52Zm.62-37.55q0,5.31,2.39,7.59t7.71,2.28q5.67,0,8-2.24t2.33-7.63q0-5.4-2.35-7.7t-8-2.3q-5.32,0-7.71,2.32T292.29,244Z"/><path class="cls-2" d="M330.35,261.6q0-6.37,3.34-9.51t10.41-3.8l14.15-1.35V243q0-4.65-2-6.62t-6.15-2q-2.81,0-7.05.29t-7.1.55l-2.86.31-.26-5a92.92,92.92,0,0,1,17.67-1.95q7.56,0,11,3.5T365,243v23.13q.22,3.35,5.23,4l-.26,5.27a20.73,20.73,0,0,1-6.26-.81,11,11,0,0,1-4.46-2.75q-.92.4-2.48,1a53.42,53.42,0,0,1-5.82,1.58,35.05,35.05,0,0,1-7.87,1q-6.15,0-9.43-3.5T330.35,261.6Zm6.94-.17a9.6,9.6,0,0,0,1.71,6.14,6.15,6.15,0,0,0,5.1,2.13,34.69,34.69,0,0,0,6.53-.68,41.64,41.64,0,0,0,5.56-1.39l2.07-.7V252.06l-13.32,1.28q-4,.4-5.84,2.35A8.2,8.2,0,0,0,337.29,261.43Z"/><path class="cls-3" d="M111.41,155.83l1.85,4.23-9.16,7.63-.38.32a20.07,20.07,0,0,1-12.05,4,21.22,21.22,0,0,1-14.95-6.41l0,0-1.52-1.81-36.49-43.5h0l-3.25-3.86a0,0,0,0,0,0,0,18.22,18.22,0,0,1,0-19.25h0l3.25-3.87h0l36.49-43.5L76.7,48s0,0,0,0a21.16,21.16,0,0,1,14.95-6.4,20,20,0,0,1,12.05,4c.13.09.25.21.38.31l9.16,7.63-1.85,4.23s0,0,0,0h0c-.1.21-.21.41-.3.62l-.16.36v0C107,67.06,95,82,95,82l-20.8,24.79L95,131.55s12,14.92,16,23.27v0l.16.36c.09.21.2.41.3.62h0S111.41,155.82,111.41,155.83Z"/><path class="cls-4" d="M372.63,106.77a18.1,18.1,0,0,1-2.75,9.62,0,0,0,0,0,0,0l-3.25,3.86h0l-36.49,43.5-1.52,1.81,0,0A21.22,21.22,0,0,1,313.63,172a20.07,20.07,0,0,1-12.05-4l-.38-.32L292,160.06l1.85-4.23s0,0,0,0h0c.1-.21.21-.41.3-.62l.16-.36v0c4-8.35,16-23.27,16-23.27l20.8-24.78L310.31,82s-12-14.92-16-23.27v0l-.16-.36c-.09-.21-.2-.41-.3-.62h0s0,0,0,0L292,53.47l9.16-7.63c.13-.1.25-.22.38-.31a20,20,0,0,1,12.05-4,21.16,21.16,0,0,1,14.95,6.4s0,0,0,0l1.52,1.8,36.49,43.5h0l3.25,3.87h0A18.14,18.14,0,0,1,372.63,106.77Z"/><path class="cls-5" d="M105.78,47.45h0a19.91,19.91,0,0,0-2.66-2.18l0,0a20.06,20.06,0,0,0-11.43-3.56,20.82,20.82,0,0,0-11,3.22L76.49,48.3s-2.95,3.6-4.06,4.93c0,0,10.44-8.24,20.4-7.34,2.13.19,4.38.5,5.91,1.54A123.84,123.84,0,0,1,111.41,57.7L113,54l.2-.37Z"/><path class="cls-6" d="M133.49,30.11l0,0,0,0h0q-.64-.54-1.31-1l1.31,1.1h0L132.14,29l-.13-.11a32.24,32.24,0,0,0-19.25-6.37,32.12,32.12,0,0,0-23.09,9.75L86.6,36,76.08,48.5a20.38,20.38,0,0,1,6.36-4.63,20.63,20.63,0,0,1,8.79-2,20.06,20.06,0,0,1,11.43,3.56l0,0a19.91,19.91,0,0,1,2.66,2.18h0l7.46,6.16,3.33,2.8,20,16.82,40.21,33.74,27.11,0V88.95Z"/><path class="cls-7" d="M133.61,30.16l0,0,0,0h0q-.64-.54-1.31-1l1.31,1.1h0l-1.31-1.1-.13-.11a32.24,32.24,0,0,0-19.25-6.37,32.12,32.12,0,0,0-23.09,9.75L86.72,36,76.2,48.54a20.38,20.38,0,0,1,6.36-4.63c1.59-.75,5.61-3.42,9.39-5.32a30.41,30.41,0,0,1,6.39-2.29,32.39,32.39,0,0,1,14.62.32c6.9,2.06,13.62,7.74,16.75,10.24,19.54,15.6,73.92,60.3,73.92,60.3,0,8,0-18.18,0-18.18Z"/><path class="cls-5" d="M105.78,166.09h0a19.91,19.91,0,0,1-2.66,2.18l0,0a20.06,20.06,0,0,1-11.43,3.56,20.82,20.82,0,0,1-11-3.22l-4.18-3.42s-2.95-3.6-4.06-4.93c0,0,10.44,8.24,20.4,7.34,2.13-.19,4.38-.5,5.91-1.54a123.84,123.84,0,0,0,12.66-10.27l1.63,3.72.2.37Z"/><path class="cls-8" d="M133.49,183.42l0,0,0,0h0q-.64.54-1.31,1l1.31-1.1h0l-1.31,1.1-.13.11A32.24,32.24,0,0,1,112.76,191a32.12,32.12,0,0,1-23.09-9.75l-3.06-3.65L76.08,165a20.38,20.38,0,0,0,6.36,4.63,20.63,20.63,0,0,0,8.79,2,20.06,20.06,0,0,0,11.43-3.56l0,0a19.91,19.91,0,0,0,2.66-2.18h0l7.46-6.16,3.33-2.8,20-16.82,40.21-33.74,27.11,0v18.18Z"/><path class="cls-9" d="M133.61,183.38l0,0,0,0h0q-.64.54-1.31,1l1.31-1.1h0l-1.31,1.1-.13.11a32.24,32.24,0,0,1-19.25,6.37,32.12,32.12,0,0,1-23.09-9.75l-3.06-3.65L76.2,165a20.38,20.38,0,0,0,6.36,4.63c1.59.75,5.61,3.42,9.39,5.32a30.41,30.41,0,0,0,6.39,2.29,32.39,32.39,0,0,0,14.62-.32c6.9-2.06,13.62-7.74,16.75-10.24,19.54-15.6,73.92-60.3,73.92-60.3,0-8,0,18.18,0,18.18Z"/><path class="cls-5" d="M299.52,47.45h0a19.91,19.91,0,0,1,2.66-2.18l0,0a20.06,20.06,0,0,1,11.43-3.56,20.82,20.82,0,0,1,11,3.22l4.18,3.42s2.95,3.6,4.06,4.93c0,0-10.44-8.24-20.4-7.34-2.13.19-4.38.5-5.91,1.54A123.84,123.84,0,0,0,293.89,57.7L292.26,54l-.2-.37Z"/><path class="cls-10" d="M271.81,30.11l0,0,0,0h0q.64-.54,1.31-1l-1.31,1.1h0l1.31-1.1.13-.11a32.24,32.24,0,0,1,19.25-6.37,32.12,32.12,0,0,1,23.09,9.75L318.69,36,329.22,48.5a20.38,20.38,0,0,0-6.36-4.63,20.63,20.63,0,0,0-8.79-2,20.06,20.06,0,0,0-11.43,3.56l0,0a19.91,19.91,0,0,0-2.66,2.18h0l-7.46,6.16-3.33,2.8-20,16.82-40.21,33.74-27.11,0V88.95Z"/><path class="cls-11" d="M271.69,30.16l0,0,0,0h0q.64-.54,1.31-1l-1.31,1.1h0l1.31-1.1.13-.11a32.24,32.24,0,0,1,19.25-6.37,32.12,32.12,0,0,1,23.09,9.75L318.57,36l10.52,12.54a20.38,20.38,0,0,0-6.36-4.63c-1.59-.75-5.61-3.42-9.39-5.32a30.41,30.41,0,0,0-6.39-2.29,32.39,32.39,0,0,0-14.62.32c-6.9,2.06-13.62,7.74-16.75,10.24-19.54,15.6-73.92,60.3-73.92,60.3,0,8,0-18.18,0-18.18Z"/><path class="cls-5" d="M299.52,166.09h0a19.91,19.91,0,0,0,2.66,2.18l0,0a20.06,20.06,0,0,0,11.43,3.56,20.82,20.82,0,0,0,11-3.22l4.18-3.42s2.95-3.6,4.06-4.93c0,0-10.44,8.24-20.4,7.34-2.13-.19-4.38-.5-5.91-1.54a123.84,123.84,0,0,1-12.66-10.27l-1.63,3.72-.2.37Z"/><path class="cls-12" d="M271.81,183.42l0,0,0,0h0q.64.54,1.31,1l-1.31-1.1h0l1.31,1.1.13.11A32.24,32.24,0,0,0,292.54,191a32.12,32.12,0,0,0,23.09-9.75l3.06-3.65L329.22,165a20.38,20.38,0,0,1-6.36,4.63,20.63,20.63,0,0,1-8.79,2,20.06,20.06,0,0,1-11.43-3.56l0,0a19.91,19.91,0,0,1-2.66-2.18h0l-7.46-6.16-3.33-2.8-20-16.82-40.21-33.74-27.11,0v18.18Z"/><path class="cls-13" d="M271.69,183.38l0,0,0,0h0q.64.54,1.31,1l-1.31-1.1h0l1.31,1.1.13.11a32.24,32.24,0,0,0,19.25,6.37,32.12,32.12,0,0,0,23.09-9.75l3.06-3.65L329.09,165a20.38,20.38,0,0,1-6.36,4.63c-1.59.75-5.61,3.42-9.39,5.32a30.41,30.41,0,0,1-6.39,2.29,32.39,32.39,0,0,1-14.62-.32c-6.9-2.06-13.62-7.74-16.75-10.24-19.54-15.6-73.92-60.3-73.92-60.3,0-8,0,18.18,0,18.18Z"/></g></g></svg>